<svg xmlns="http://www.w3.org/2000/svg" xmlns:xlink="http://www.w3.org/1999/xlink" viewBox="0,0,256,256" width="64px" height="64px" fill-rule="nonzero"><g fill="none" fill-rule="nonzero" stroke="none" stroke-width="1" stroke-linecap="butt" stroke-linejoin="miter" stroke-miterlimit="10" stroke-dasharray="" stroke-dashoffset="0" font-family="none" font-weight="none" font-size="none" text-anchor="none" style="mix-blend-mode: normal"><g transform="scale(4,4)"><path d="M35.774,47.286c-0.433,0 -0.831,-0.282 -0.959,-0.718l-0.564,-1.919c-0.156,-0.53 0.146,-1.086 0.677,-1.241c0.531,-0.158 1.087,0.148 1.241,0.677l0.564,1.919c0.156,0.53 -0.146,1.086 -0.677,1.241c-0.093,0.028 -0.189,0.041 -0.282,0.041z" fill-opacity="0" fill="#fcc419"></path><path d="M30.779,47.938c-0.032,0 -0.064,-0.001 -0.097,-0.005c-0.55,-0.053 -0.952,-0.541 -0.899,-1.091l0.191,-1.991c0.053,-0.551 0.55,-0.965 1.091,-0.899c0.55,0.053 0.952,0.541 0.899,1.091l-0.191,1.991c-0.049,0.517 -0.484,0.904 -0.994,0.904z" fill-opacity="0" fill="#fcc419"></path><path d="M25.928,46.158c-0.206,0 -0.414,-0.063 -0.592,-0.195c-0.445,-0.327 -0.54,-0.953 -0.212,-1.397l1.187,-1.61c0.326,-0.445 0.955,-0.54 1.397,-0.212c0.445,0.327 0.54,0.953 0.212,1.397l-1.187,1.61c-0.195,0.267 -0.499,0.407 -0.805,0.407z" fill-opacity="0" fill="#fcc419"></path><path d="M22.799,42.033c-0.397,0 -0.772,-0.237 -0.929,-0.628c-0.206,-0.513 0.044,-1.095 0.557,-1.301l1.856,-0.743c0.513,-0.206 1.094,0.045 1.3,0.557c0.205,0.513 -0.044,1.095 -0.557,1.301l-1.857,0.743c-0.12,0.049 -0.246,0.071 -0.37,0.071z" fill-opacity="0" fill="#fcc419"></path><path d="M31.807,57c-9.731,0 -19.583,-6.088 -19.583,-17.725c0,-1.838 0.224,-3.503 0.625,-5.005c-0.318,0.66 -0.869,1.134 -1.651,1.414c-0.317,0.114 -0.646,0.172 -0.977,0.172c-1.258,0 -2.401,-0.846 -2.844,-2.105c-0.696,-1.98 -0.677,-7.472 2.332,-13.776c2.814,-5.896 7.563,-10.145 13.734,-12.285c1.319,-0.459 2.565,-0.69 3.703,-0.69c1.258,0 2.407,0.28 3.417,0.834c1.91,1.049 3.178,2.93 3.875,5.75c0.846,3.415 0.709,7.55 0.641,8.822c0.008,-0.022 0.015,-0.046 0.022,-0.069c0.809,-2.519 2.452,-7.099 3.666,-9.39c0.952,-1.796 2.438,-2.907 4.184,-3.131c0.218,-0.028 0.439,-0.043 0.662,-0.043c1.809,0 3.59,0.95 5.293,2.823c1.737,1.871 10.049,11.459 7.662,21.58c-0.317,1.342 -1.532,2.278 -2.955,2.278c-0.282,0 -0.563,-0.038 -0.836,-0.114c-0.672,-0.189 -1.227,-0.617 -1.608,-1.178c1.256,2.13 1.888,4.264 1.888,6.393c0,8.555 -11.625,15.445 -21.25,15.445zM34.632,24.897c-0.682,1.892 -2.36,3.607 -6.515,3.754c-3.935,0.14 -9.79,3.084 -9.79,10.624c0,7.601 6.781,11.577 13.479,11.577c6.474,0 15.146,-4.597 15.146,-9.297c0,-3.018 -3.305,-6.969 -9.069,-10.845l-0.251,-0.128l-0.055,-0.038c-2.024,-1.408 -3.019,-3.332 -2.945,-5.647zM43.912,16.411c-0.956,2.121 -2.556,5.673 -3.271,7.901c-0.202,0.63 -0.068,0.801 0.591,1.259c4.571,3.065 7.831,6.173 9.756,9.29c-0.377,-0.71 -0.503,-1.578 -0.287,-2.437c1.412,-5.624 -4.066,-13.223 -6.296,-15.676c-0.201,-0.222 -0.358,-0.344 -0.46,-0.405c-0.01,0.019 -0.021,0.042 -0.033,0.068zM27.14,13.143c-0.443,0 -1.034,0.124 -1.709,0.358c-11.964,4.152 -12.701,15.944 -12.35,18.094c0.107,0.656 0.122,1.241 0.045,1.752c2.496,-7.55 9.652,-10.657 14.777,-10.839c1.142,-0.04 1.383,-0.221 1.393,-0.229c0.096,-0.935 -0.122,-4.559 -0.778,-7.209c-0.369,-1.496 -0.792,-1.794 -0.873,-1.838c-0.063,-0.034 -0.208,-0.089 -0.505,-0.089z" fill="#fcc419"></path><path d="M27.146,8c1.091,0 2.072,0.237 2.936,0.711c1.653,0.907 2.76,2.58 3.386,5.114c0.79,3.194 0.694,7.072 0.611,8.58c-0.112,2.047 -0.616,5.058 -5.997,5.248c-4.323,0.153 -10.755,3.374 -10.755,11.623c0,8.257 7.284,12.577 14.479,12.577c7.051,0 16.147,-4.993 16.147,-10.297c0,-3.341 -3.331,-7.528 -9.561,-11.707l-0.244,-0.126c-3.047,-2.118 -2.731,-5.098 -2.095,-7.08c0.85,-2.651 2.461,-7.082 3.598,-9.226c0.794,-1.501 2.011,-2.427 3.427,-2.607c0.178,-0.024 0.356,-0.035 0.535,-0.035c1.514,0 3.049,0.842 4.553,2.496c0.412,0.454 9.883,10.274 7.429,20.677c-0.218,0.923 -1.071,1.509 -1.981,1.509c-0.189,0 -0.379,-0.025 -0.568,-0.078c-1.091,-0.309 -1.655,-1.598 -1.376,-2.709c1.538,-6.128 -4.15,-13.979 -6.525,-16.593c-0.456,-0.502 -0.9,-0.785 -1.287,-0.785c-0.342,0 -0.638,0.221 -0.858,0.708c-1.008,2.238 -2.584,5.741 -3.311,8.007c-0.42,1.308 0.246,1.881 0.972,2.386c7.615,5.107 11.396,10.267 11.396,15.163c0,8.001 -11.078,14.444 -20.251,14.444c-9.234,0 -18.582,-5.744 -18.582,-16.725c0,-11.187 8.799,-15.559 14.713,-15.768c1.847,-0.065 2.231,-0.481 2.312,-1.07c0.149,-1.08 -0.073,-4.821 -0.762,-7.607c-0.328,-1.326 -0.786,-2.158 -1.363,-2.475c-0.277,-0.152 -0.618,-0.212 -0.984,-0.212c-0.669,0 -1.425,0.201 -2.037,0.414c-13.021,4.518 -13.299,17.424 -13.009,19.199c0.28,1.713 -0.166,2.604 -1.233,2.987c-0.214,0.077 -0.43,0.113 -0.64,0.113c-0.838,0 -1.597,-0.575 -1.9,-1.438c-0.622,-1.769 -0.57,-7.018 2.291,-13.013c2.696,-5.649 7.246,-9.72 13.159,-11.771c1.219,-0.423 2.346,-0.634 3.375,-0.634M27.146,6c-1.251,0 -2.607,0.25 -4.031,0.744c-6.429,2.231 -11.377,6.657 -14.309,12.8c-3.161,6.624 -3.151,12.323 -2.373,14.538c0.583,1.66 2.105,2.775 3.787,2.775c0.39,0 0.777,-0.059 1.152,-0.176c-0.098,0.826 -0.149,1.691 -0.149,2.595c0.001,12.292 10.355,18.724 20.583,18.724c10.289,0 22.25,-7.183 22.25,-16.445c0,-1.373 -0.24,-2.743 -0.718,-4.109c0.092,0.006 0.183,0.009 0.275,0.009c1.889,0 3.504,-1.254 3.927,-3.049c2.442,-10.349 -5.395,-19.792 -7.855,-22.439l-0.039,-0.043c-1.901,-2.091 -3.93,-3.151 -6.033,-3.151c-0.265,0 -0.534,0.018 -0.797,0.052c-2.07,0.264 -3.825,1.562 -4.932,3.655c-0.585,1.104 -1.264,2.714 -1.904,4.377c-0.109,-1.162 -0.288,-2.369 -0.571,-3.513c-0.768,-3.106 -2.195,-5.195 -4.365,-6.386c-1.159,-0.636 -2.47,-0.958 -3.898,-0.958zM14.178,28.933c0.463,-3.913 2.56,-11.357 11.58,-14.487c0.547,-0.19 1.044,-0.3 1.368,-0.303c0.092,0.158 0.255,0.503 0.419,1.167c0.533,2.153 0.745,4.841 0.75,6.173c-0.118,0.01 -0.26,0.019 -0.429,0.025c-4.405,0.156 -10.227,2.347 -13.688,7.425zM41.598,24.603c0.571,-1.773 1.731,-4.442 2.653,-6.505c2.275,2.738 6.353,8.83 5.592,13.535c-1.991,-2.326 -4.683,-4.63 -8.069,-6.901c-0.074,-0.052 -0.132,-0.095 -0.176,-0.129zM31.806,49.852c-6.201,0 -12.479,-3.633 -12.479,-10.577c0,-7.366 5.773,-9.516 8.825,-9.624c2.593,-0.092 4.557,-0.779 5.884,-2.054c0.513,1.475 1.51,2.753 2.971,3.769l0.108,0.075l0.117,0.06l0.14,0.072c5.375,3.624 8.581,7.351 8.581,9.982c0.001,3.722 -7.8,8.297 -14.147,8.297z" fill-opacity="0" fill="#fcc419"></path></g></g></svg>